<svg id="_024_HOLIDAYS" data-name="024_HOLIDAYS" xmlns="http://www.w3.org/2000/svg" viewBox="0 0 24 24"><defs><style>.cls-1{fill:#333;}</style></defs><path class="cls-1" d="M20,20H10a1,1,0,0,1,0-2h9.08l.58-7-1.49,2.38a2.39,2.39,0,0,1-4.18-.2l-2-4-2,4a2.39,2.39,0,0,1-4.18.2L4.34,11l.58,7H6a1,1,0,0,1,0,2H4a1,1,0,0,1-1-.92l-1-12a1,1,0,0,1,.68-1,1,1,0,0,1,1.17.42l3.67,5.88a.42.42,0,0,0,.36.19.4.4,0,0,0,.34-.22l2.89-5.77a1,1,0,0,1,1.78,0l2.89,5.77a.4.4,0,0,0,.34.22.43.43,0,0,0,.36-.19l3.67-5.88a1,1,0,0,1,1.17-.42,1,1,0,0,1,.68,1l-1,12A1,1,0,0,1,20,20Z"/></svg>